<svg xmlns="http://www.w3.org/2000/svg" style="display:none">
    <symbol id="icon-search" viewBox="0 0 24 24">
        <circle cx="11" cy="11" r="6"></circle>
        <path d="M15.5 15.5L20 20"></path>
    </symbol>

    <symbol id="icon-saved" viewBox="0 0 24 24">
        <path d="M6 4.5h12a1 1 0 0 1 1 1V20l-7-3.6L5 20V5.5a1 1 0 0 1 1-1z"></path>
    </symbol>

    <symbol id="icon-recents" viewBox="0 0 24 24">
        <path d="M3 12a9 9 0 1 0 3-6.7"></path>
        <path d="M3 4v4h4"></path>
        <path d="M12 7.5V12l3.2 1.9"></path>
    </symbol>

    <symbol id="icon-weather" viewBox="0 0 24 24">
        <path d="M7.5 17.5h8.6a3 3 0 0 0 .1-6A4.8 4.8 0 0 0 7 10.7a3.5 3.5 0 0 0 .5 6.8z"></path>
        <path d="M9 6.5V5"></path>
        <path d="M5.9 8.1 4.8 7"></path>
        <path d="M12.3 8.1 13.4 7"></path>
    </symbol>
</svg>
