<svg xmlns="http://www.w3.org/2000/svg" style="display:none">
    <symbol id="icon-search" viewBox="0 0 24 24">
        <circle cx="11" cy="11" r="6"></circle>
        <path d="M15.5 15.5L20 20"></path>
    </symbol>

    <symbol id="icon-saved" viewBox="0 0 24 24">
        <path d="M6 4.5h12a1 1 0 0 1 1 1V20l-7-3.6L5 20V5.5a1 1 0 0 1 1-1z"></path>
    </symbol>

    <symbol id="icon-recents" viewBox="0 0 24 24">
        <path d="M3 12a9 9 0 1 0 3-6.7"></path>
        <path d="M3 4v4h4"></path>
        <path d="M12 7.5V12l3.2 1.9"></path>
    </symbol>

    <symbol id="icon-weather" viewBox="0 0 24 24">
        <path d="M7.5 17.5h8.6a3 3 0 0 0 .1-6A4.8 4.8 0 0 0 7 10.7a3.5 3.5 0 0 0 .5 6.8z"></path>
        <path d="M9 6.5V5"></path>
        <path d="M5.9 8.1 4.8 7"></path>
        <path d="M12.3 8.1 13.4 7"></path>
    </symbol>

    <symbol id="icon-assistant" viewBox="0 0 24 24">
        <path d="M11.017 2.814a1 1 0 0 1 1.966 0l1.051 5.558a2 2 0 0 0 1.594 1.594l5.558 1.051a1 1 0 0 1 0 1.966l-5.558 1.051a2 2 0 0 0-1.594 1.594l-1.051 5.558a1 1 0 0 1-1.966 0l-1.051-5.558a2 2 0 0 0-1.594-1.594l-5.558-1.051a1 1 0 0 1 0-1.966l5.558-1.051a2 2 0 0 0 1.594-1.594z"></path>
        <path d="M20 2v4"></path>
        <path d="M22 4h-4"></path>
        <circle cx="4" cy="20" r="2"></circle>
    </symbol>
</svg>
